<svg width="1630" height="1133" viewBox="0 0 1630 1133" fill="none" xmlns="http://www.w3.org/2000/svg">
<g clip-path="url(#clip0_2_708)">
<mask id="mask0_2_708" style="mask-type:luminance" maskUnits="userSpaceOnUse" x="-98" y="0" width="1826" height="1132">
<path d="M1727.23 0.607422H-97.6843V1131.43H1727.23V0.607422Z" fill="white"/>
</mask>
<g mask="url(#mask0_2_708)">
<g opacity="0.3">
<path d="M804.642 896.291H780.525V872.174H804.642V896.291Z" fill="#303033"/>
<path d="M940.301 845.042H913.169V817.91H940.301V845.042Z" fill="#303033"/>
<path d="M916.184 842.027H892.067V817.91H916.184V842.027Z" fill="#303033"/>
<path d="M889.052 842.027H864.935V817.91H889.052V842.027Z" fill="#303033"/>
<path d="M855.891 842.027H831.774V820.925H855.891V842.027Z" fill="#303033"/>
<path d="M976.477 840.52H949.345V813.388H976.477V840.52Z" fill="#303033"/>
<path d="M620.748 811.881H605.675V796.808H620.748V811.881Z" fill="#303033"/>
<path d="M979.491 832.983H949.345V804.344H979.491V832.983Z" fill="#303033"/>
<path d="M593.616 849.564H574.021V832.983H593.616V849.564Z" fill="#303033"/>
<path d="M605.675 866.145H584.573V845.042H605.675V866.145Z" fill="#303033"/>
<path d="M1032.25 842.027H1005.12V813.388H1032.25V842.027Z" fill="#303033"/>
<path d="M1027.73 808.866H1009.64V789.271H1027.73V808.866Z" fill="#303033"/>
<path d="M574.021 808.866H557.441V792.285H574.021V808.866Z" fill="#303033"/>
<path d="M577.036 837.505H554.426V816.402H577.036V837.505Z" fill="#303033"/>
<path d="M578.543 866.145H554.426V845.042H578.543V866.145Z" fill="#303033"/>
<path d="M578.543 897.798H552.919V872.174H578.543V897.798Z" fill="#303033"/>
<path d="M1060.89 897.798H1032.25V869.159H1060.89V897.798Z" fill="#303033"/>
<path d="M1059.38 869.159H1035.26V842.027H1059.38V869.159Z" fill="#303033"/>
<path d="M1059.38 832.983H1044.31V816.402H1059.38V832.983Z" fill="#303033"/>
<path d="M1048.83 801.33H1044.31V796.808H1048.83V801.33Z" fill="#303033"/>
<path d="M1075.96 857.101H1072.95V854.086H1075.96V857.101Z" fill="#303033"/>
<path d="M1107.61 860.115H1100.08V852.578H1107.61V860.115Z" fill="#303033"/>
<path d="M494.133 801.33H474.538V784.749H494.133V801.33Z" fill="#303033"/>
<path d="M506.192 845.042H485.089V823.939H506.192V845.042Z" fill="#303033"/>
<path d="M494.133 869.159H470.016V842.027H494.133V869.159Z" fill="#303033"/>
<path d="M497.148 897.798H470.016V872.174H497.148V897.798Z" fill="#303033"/>
<path d="M1145.3 897.798H1116.66V869.159H1145.3V897.798Z" fill="#303033"/>
<path d="M1145.3 872.173H1116.66V840.52H1145.3V872.173Z" fill="#303033"/>
<path d="M1139.27 835.998H1124.19V820.925H1139.27V835.998Z" fill="#303033"/>
<path d="M445.899 700.339H441.377V694.31H445.899V700.339Z" fill="#303033"/>
<path d="M460.972 805.851H445.899V792.285H460.972V805.851Z" fill="#303033"/>
<path d="M462.479 842.027H442.884V823.939H462.479V842.027Z" fill="#303033"/>
<path d="M465.494 866.145H442.884V845.042H465.494V866.145Z" fill="#303033"/>
<path d="M470.016 896.291H448.913V873.681H470.016V896.291Z" fill="#303033"/>
<path d="M1175.44 872.173H1145.3V840.52H1175.44V872.173Z" fill="#303033"/>
<path d="M1179.97 840.52H1148.31V808.866H1179.97V840.52Z" fill="#303033"/>
<path d="M1164.89 804.344H1155.85V793.793H1164.89V804.344Z" fill="#303033"/>
<path d="M1208.6 864.637H1176.95V832.983H1208.6V864.637Z" fill="#303033"/>
<path d="M1204.08 842.027H1172.43V813.388H1204.08V842.027Z" fill="#303033"/>
<path d="M1204.08 813.388H1172.43V784.749H1204.08V813.388Z" fill="#303033"/>
<path d="M378.069 808.866H361.489V792.285H378.069V808.866Z" fill="#303033"/>
<path d="M381.084 897.798H356.967V872.174H381.084V897.798Z" fill="#303033"/>
<path d="M1259.85 813.388H1231.21V784.749H1259.85V813.388Z" fill="#303033"/>
<path d="M350.937 840.52H329.835V816.402H350.937V840.52Z" fill="#303033"/>
<path d="M346.416 879.71H319.284V854.086H346.416V879.71Z" fill="#303033"/>
<path d="M350.937 897.798H325.313V872.174H350.937V897.798Z" fill="#303033"/>
<path d="M1288.49 842.027H1256.84V813.388H1288.49V842.027Z" fill="#303033"/>
<path d="M1288.49 813.388H1256.84V784.749H1288.49V813.388Z" fill="#303033"/>
<path d="M325.313 811.88H301.196V786.256H325.313V811.88Z" fill="#303033"/>
<path d="M326.82 842.027H298.181V813.388H326.82V842.027Z" fill="#303033"/>
<path d="M1315.62 842.027H1286.99V813.388H1315.62V842.027Z" fill="#303033"/>
<path d="M289.137 748.573H278.586V736.515H289.137V748.573Z" fill="#303033"/>
<path d="M293.659 781.734H274.064V760.632H293.659V781.734Z" fill="#303033"/>
<path d="M298.181 813.388H269.542V786.256H298.181V813.388Z" fill="#303033"/>
<path d="M298.181 842.027H269.542V813.388H298.181V842.027Z" fill="#303033"/>
<path d="M298.181 872.173H269.542V840.52H298.181V872.173Z" fill="#303033"/>
<path d="M1344.26 872.173H1315.62V840.52H1344.26V872.173Z" fill="#303033"/>
<path d="M1344.26 842.027H1315.62V813.388H1344.26V842.027Z" fill="#303033"/>
<path d="M269.542 813.388H242.41V784.749H269.542V813.388Z" fill="#303033"/>
<path d="M271.049 842.027H239.396V813.388H271.049V842.027Z" fill="#303033"/>
<path d="M271.049 872.173H239.396V840.52H271.049V872.173Z" fill="#303033"/>
<path d="M271.049 897.798H239.396V869.159H271.049V897.798Z" fill="#303033"/>
<path d="M239.395 811.88H215.278V786.256H239.395V811.88Z" fill="#303033"/>
<path d="M242.41 842.027H210.756V813.388H242.41V842.027Z" fill="#303033"/>
<path d="M201.712 745.559H197.19V741.037H201.712V745.559Z" fill="#303033"/>
<path d="M203.22 777.212H194.176V765.154H203.22V777.212Z" fill="#303033"/>
<path d="M209.249 808.866H189.654V789.271H209.249V808.866Z" fill="#303033"/>
<path d="M213.771 893.276H191.161V872.174H213.771V893.276Z" fill="#303033"/>
<path d="M154.985 811.88H129.361V786.256H154.985V811.88Z" fill="#303033"/>
<path d="M776.003 620.451H751.885V596.333H776.003V620.451Z" fill="#303033"/>
<path d="M804.642 621.958H777.51V596.333H804.642V621.958Z" fill="#303033"/>
<path d="M833.281 621.958H806.149V596.333H833.281V621.958Z" fill="#303033"/>
<path d="M833.281 593.319H806.149V566.187H833.281V593.319Z" fill="#303033"/>
<path d="M833.281 564.68H806.149V540.562H833.281V564.68Z" fill="#303033"/>
<path d="M804.642 564.68H777.51V540.562H804.642V564.68Z" fill="#303033"/>
<path d="M780.525 557.143H756.407V533.026H780.525V557.143Z" fill="#303033"/>
<path d="M776.003 593.319H751.885V569.202H776.003V593.319Z" fill="#303033"/>
<path d="M776.003 649.09H751.885V624.973H776.003V649.09Z" fill="#303033"/>
<path d="M804.642 649.09H777.51V624.973H804.642V649.09Z" fill="#303033"/>
<path d="M833.281 649.09H806.149V624.973H833.281V649.09Z" fill="#303033"/>
<path d="M860.413 649.09H836.296V624.973H860.413V649.09Z" fill="#303033"/>
<path d="M860.413 620.451H836.296V596.333H860.413V620.451Z" fill="#303033"/>
<path d="M857.398 590.304H836.296V569.202H857.398V590.304Z" fill="#303033"/>
<path d="M853.31 565.376L831.287 565.848L830.815 543.824L852.838 543.353L853.31 565.376Z" fill="#303033"/>
<path d="M860.413 534.533H836.296V510.416H860.413V534.533Z" fill="#303033"/>
<path d="M804.642 534.533H777.51V510.416H804.642V534.533Z" fill="#303033"/>
<path d="M785.047 542.07H763.944V520.967H785.047V542.07Z" fill="#303033"/>
<path d="M751.885 533.026H732.29V513.431H751.885V533.026Z" fill="#303033"/>
<path d="M744.349 561.665H724.754V542.07H744.349V561.665Z" fill="#303033"/>
<path d="M748.871 588.797H729.276V566.187H748.871V588.797Z" fill="#303033"/>
<path d="M745.856 620.451H724.754V597.841H745.856V620.451Z" fill="#303033"/>
<path d="M717.217 676.222H696.115V656.626H717.217V676.222Z" fill="#303033"/>
<path d="M745.856 677.729H721.739V653.612H745.856V677.729Z" fill="#303033"/>
<path d="M776.003 677.729H751.885V650.597H776.003V677.729Z" fill="#303033"/>
<path d="M833.281 677.729H806.149V650.597H833.281V677.729Z" fill="#303033"/>
<path d="M860.413 677.729H836.296V650.597H860.413V677.729Z" fill="#303033"/>
<path d="M889.052 677.729H861.92V650.597H889.052V677.729Z" fill="#303033"/>
<path d="M887.545 646.075H864.935V626.48H887.545V646.075Z" fill="#303033"/>
<path d="M872.471 621.958H860.413V609.899H872.471V621.958Z" fill="#303033"/>
<path d="M873.979 581.26H864.935V569.202H873.979V581.26Z" fill="#303033"/>
<path d="M869.457 557.143H860.413V546.592H869.457V557.143Z" fill="#303033"/>
<path d="M867.949 525.489H852.876V510.416H867.949V525.489Z" fill="#303033"/>
<path d="M889.052 502.879H864.935V481.777H889.052V502.879Z" fill="#303033"/>
<path d="M857.398 508.909H831.774V484.792H857.398V508.909Z" fill="#303033"/>
<path d="M831.774 508.909H806.149V484.792H831.774V508.909Z" fill="#303033"/>
<path d="M804.642 508.909H780.525V484.792H804.642V508.909Z" fill="#303033"/>
<path d="M768.466 505.894H745.856V481.777H768.466V505.894Z" fill="#303033"/>
<path d="M712.695 501.372H700.636V489.313H712.695V501.372Z" fill="#303033"/>
<path d="M712.695 558.65H700.636V545.084H712.695V558.65Z" fill="#303033"/>
<path d="M714.202 617.436H697.622V600.855H714.202V617.436Z" fill="#303033"/>
<path d="M717.217 646.075H696.115V626.48H717.217V646.075Z" fill="#303033"/>
<path d="M685.563 701.846H664.461V680.744H685.563V701.846Z" fill="#303033"/>
<path d="M720.232 700.339H700.636V680.744H720.232V700.339Z" fill="#303033"/>
<path d="M745.856 704.861H724.754V682.251H745.856V704.861Z" fill="#303033"/>
<path d="M776.003 704.861H751.885V680.744H776.003V704.861Z" fill="#303033"/>
<path d="M804.642 706.368H777.51V680.744H804.642V706.368Z" fill="#303033"/>
<path d="M831.774 706.368H806.149V680.744H831.774V706.368Z" fill="#303033"/>
<path d="M889.052 706.368H861.92V680.744H889.052V706.368Z" fill="#303033"/>
<path d="M917.691 709.383H889.052V677.729H917.691V709.383Z" fill="#303033"/>
<path d="M916.184 677.729H892.067V653.612H916.184V677.729Z" fill="#303033"/>
<path d="M911.662 646.075H899.603V634.017H911.662V646.075Z" fill="#303033"/>
<path d="M905.633 525.489H904.125V522.475H905.633V525.489Z" fill="#303033"/>
<path d="M913.169 502.879H896.589V486.299H913.169V502.879Z" fill="#303033"/>
<path d="M916.184 478.762H892.067V454.645H916.184V478.762Z" fill="#303033"/>
<path d="M881.515 478.762H857.398V454.645H881.515V478.762Z" fill="#303033"/>
<path d="M831.774 478.762H806.149V454.645H831.774V478.762Z" fill="#303033"/>
<path d="M741.334 474.24H726.261V460.674H741.334V474.24Z" fill="#303033"/>
<path d="M714.202 466.704H708.173V460.674H714.202V466.704Z" fill="#303033"/>
<path d="M684.056 472.733H673.505V462.182H684.056V472.733Z" fill="#303033"/>
<path d="M684.056 501.372H673.505V490.821H684.056V501.372Z" fill="#303033"/>
<path d="M684.056 530.011H673.505V517.953H684.056V530.011Z" fill="#303033"/>
<path d="M684.056 557.143H673.505V546.592H684.056V557.143Z" fill="#303033"/>
<path d="M684.056 585.782H673.505V573.724H684.056V585.782Z" fill="#303033"/>
<path d="M685.563 614.421H670.49V600.855H685.563V614.421Z" fill="#303033"/>
<path d="M688.578 646.075H668.983V626.48H688.578V646.075Z" fill="#303033"/>
<path d="M688.578 676.222H665.968V653.612H688.578V676.222Z" fill="#303033"/>
<path d="M661.446 731.993H637.329V706.368H661.446V731.993Z" fill="#303033"/>
<path d="M684.056 728.978H664.461V709.383H684.056V728.978Z" fill="#303033"/>
<path d="M708.173 733.5H688.578V716.919H708.173V733.5Z" fill="#303033"/>
<path d="M748.871 716.919H729.276V700.339H748.871V716.919Z" fill="#303033"/>
<path d="M780.525 718.427H760.929V700.339H780.525V718.427Z" fill="#303033"/>
<path d="M801.627 733.5H780.525V712.397H801.627V733.5Z" fill="#303033"/>
<path d="M825.744 736.515H804.642V713.905H825.744V736.515Z" fill="#303033"/>
<path d="M860.413 733.5H836.296V709.383H860.413V733.5Z" fill="#303033"/>
<path d="M889.052 736.515H861.92V709.383H889.052V736.515Z" fill="#303033"/>
<path d="M917.691 736.515H889.052V706.368H917.691V736.515Z" fill="#303033"/>
<path d="M947.838 736.515H917.691V706.368H947.838V736.515Z" fill="#303033"/>
<path d="M947.838 709.383H917.691V677.729H947.838V709.383Z" fill="#303033"/>
<path d="M941.808 676.222H920.706V653.612H941.808V676.222Z" fill="#303033"/>
<path d="M928.242 641.553H920.706V632.509H928.242V641.553Z" fill="#303033"/>
<path d="M935.779 525.489H929.75V522.475H935.779V525.489Z" fill="#303033"/>
<path d="M940.301 502.879H925.228V486.299H940.301V502.879Z" fill="#303033"/>
<path d="M944.823 478.762H920.706V454.645H944.823V478.762Z" fill="#303033"/>
<path d="M937.286 454.645H913.169V430.528H937.286V454.645Z" fill="#303033"/>
<path d="M913.169 453.138H889.052V429.021H913.169V453.138Z" fill="#303033"/>
<path d="M889.052 453.138H864.935V429.021H889.052V453.138Z" fill="#303033"/>
<path d="M852.876 454.645H828.759V430.528H852.876V454.645Z" fill="#303033"/>
<path d="M831.774 450.123H809.164V429.021H831.774V450.123Z" fill="#303033"/>
<path d="M792.583 453.138H772.988V433.542H792.583V453.138Z" fill="#303033"/>
<path d="M772.988 448.616H753.393V430.528H772.988V448.616Z" fill="#303033"/>
<path d="M741.334 445.601H729.276V433.542H741.334V445.601Z" fill="#303033"/>
<path d="M709.68 441.079H705.158V435.05H709.68V441.079Z" fill="#303033"/>
<path d="M690.085 438.064H684.056V430.528H690.085V438.064Z" fill="#303033"/>
<path d="M665.968 442.586H652.402V429.021H665.968V442.586Z" fill="#303033"/>
<path d="M649.387 478.762H632.807V462.182H649.387V478.762Z" fill="#303033"/>
<path d="M653.909 505.894H634.314V486.299H653.909V505.894Z" fill="#303033"/>
<path d="M652.402 530.011H632.807V513.431H652.402V530.011Z" fill="#303033"/>
<path d="M658.431 561.665H641.851V542.07H658.431V561.665Z" fill="#303033"/>
<path d="M658.431 588.797H641.851V570.709H658.431V588.797Z" fill="#303033"/>
<path d="M656.924 620.451H634.314V597.841H656.924V620.451Z" fill="#303033"/>
<path d="M658.431 649.09H634.314V624.973H658.431V649.09Z" fill="#303033"/>
<path d="M664.461 677.729H637.329V650.597H664.461V677.729Z" fill="#303033"/>
<path d="M664.461 706.368H637.329V680.744H664.461V706.368Z" fill="#303033"/>
<path d="M632.807 760.632H610.197V741.037H632.807V760.632Z" fill="#303033"/>
<path d="M688.578 760.632H668.983V741.037H688.578V760.632Z" fill="#303033"/>
<path d="M720.232 756.11H702.144V738.022H720.232V756.11Z" fill="#303033"/>
<path d="M760.929 744.051H745.856V728.978H760.929V744.051Z" fill="#303033"/>
<path d="M777.51 750.081H763.944V736.515H777.51V750.081Z" fill="#303033"/>
<path d="M825.744 757.617H812.178V744.051H825.744V757.617Z" fill="#303033"/>
<path d="M887.545 760.632H867.949V741.037H887.545V760.632Z" fill="#303033"/>
<path d="M913.169 760.632H893.574V741.037H913.169V760.632Z" fill="#303033"/>
<path d="M940.301 757.617H925.228V741.037H940.301V757.617Z" fill="#303033"/>
<path d="M961.403 753.095H959.896V748.573H961.403V753.095Z" fill="#303033"/>
<path d="M976.477 736.515H944.823V706.368H976.477V736.515Z" fill="#303033"/>
<path d="M976.477 709.383H944.823V677.729H976.477V709.383Z" fill="#303033"/>
<path d="M973.462 677.729H947.838V650.597H973.462V677.729Z" fill="#303033"/>
<path d="M967.433 644.568H953.867V629.495H967.433V644.568Z" fill="#303033"/>
<path d="M971.955 612.914H964.418V605.377H971.955V612.914Z" fill="#303033"/>
<path d="M973.462 581.26H967.433V576.738H973.462V581.26Z" fill="#303033"/>
<path d="M961.403 552.621H953.867V545.084H961.403V552.621Z" fill="#303033"/>
<path d="M971.955 528.504H959.896V513.431H971.955V528.504Z" fill="#303033"/>
<path d="M971.955 505.894H949.345V484.792H971.955V505.894Z" fill="#303033"/>
<path d="M973.462 481.777H947.838V453.138H973.462V481.777Z" fill="#303033"/>
<path d="M973.462 453.138H947.838V426.006H973.462V453.138Z" fill="#303033"/>
<path d="M973.462 422.991H949.345V398.874H973.462V422.991Z" fill="#303033"/>
<path d="M935.779 421.484H911.662V397.367H935.779V421.484Z" fill="#303033"/>
<path d="M916.184 421.484H893.574V398.874H916.184V421.484Z" fill="#303033"/>
<path d="M880.008 429.02H857.398V406.411H880.008V429.02Z" fill="#303033"/>
<path d="M857.398 421.484H837.803V398.874H857.398V421.484Z" fill="#303033"/>
<path d="M801.627 429.021H785.047V410.933H801.627V429.021Z" fill="#303033"/>
<path d="M769.973 416.962H756.407V404.903H769.973V416.962Z" fill="#303033"/>
<path d="M738.32 413.947H732.29V406.411H738.32V413.947Z" fill="#303033"/>
<path d="M681.041 413.947H676.519V406.411H681.041V413.947Z" fill="#303033"/>
<path d="M656.924 416.962H644.865V404.903H656.924V416.962Z" fill="#303033"/>
<path d="M620.748 422.991H605.675V406.411H620.748V422.991Z" fill="#303033"/>
<path d="M632.807 448.616H616.226V430.528H632.807V448.616Z" fill="#303033"/>
<path d="M634.314 478.762H613.212V460.674H634.314V478.762Z" fill="#303033"/>
<path d="M632.807 505.894H610.197V484.792H632.807V505.894Z" fill="#303033"/>
<path d="M632.807 534.533H610.197V513.431H632.807V534.533Z" fill="#303033"/>
<path d="M632.807 564.68H610.197V540.562H632.807V564.68Z" fill="#303033"/>
<path d="M632.807 590.304H610.197V569.202H632.807V590.304Z" fill="#303033"/>
<path d="M637.329 617.436H613.212V593.319H637.329V617.436Z" fill="#303033"/>
<path d="M634.314 650.597H608.69V621.958H634.314V650.597Z" fill="#303033"/>
<path d="M628.285 677.729H601.153V650.597H628.285V677.729Z" fill="#303033"/>
<path d="M641.851 701.846H616.226V676.222H641.851V701.846Z" fill="#303033"/>
<path d="M596.631 780.227H584.573V768.168H596.631V780.227Z" fill="#303033"/>
<path d="M620.748 786.256H605.675V772.69H620.748V786.256Z" fill="#303033"/>
<path d="M664.461 793.793H649.387V780.227H664.461V793.793Z" fill="#303033"/>
<path d="M661.446 777.212H646.373V762.139H661.446V777.212Z" fill="#303033"/>
<path d="M712.695 774.198H700.636V762.139H712.695V774.198Z" fill="#303033"/>
<path d="M751.885 784.749H738.32V772.69H751.885V784.749Z" fill="#303033"/>
<path d="M768.466 769.676H760.929V762.139H768.466V769.676Z" fill="#303033"/>
<path d="M792.583 780.227H789.569V777.212H792.583V780.227Z" fill="#303033"/>
<path d="M821.222 780.227H819.715V777.212H821.222V780.227Z" fill="#303033"/>
<path d="M849.862 780.227H845.34V774.198H849.862V780.227Z" fill="#303033"/>
<path d="M880.008 780.227H873.979V774.198H880.008V780.227Z" fill="#303033"/>
<path d="M997.579 731.993H979.491V712.397H997.579V731.993Z" fill="#303033"/>
<path d="M1005.12 709.383H973.462V677.729H1005.12V709.383Z" fill="#303033"/>
<path d="M1005.12 680.744H973.462V649.09H1005.12V680.744Z" fill="#303033"/>
<path d="M1003.61 650.597H976.477V621.958H1003.61V650.597Z" fill="#303033"/>
<path d="M997.579 617.436H979.491V597.841H997.579V617.436Z" fill="#303033"/>
<path d="M997.579 588.797H980.999V570.709H997.579V588.797Z" fill="#303033"/>
<path d="M997.579 561.665H979.491V542.07H997.579V561.665Z" fill="#303033"/>
<path d="M1000.59 534.533H976.477V510.416H1000.59V534.533Z" fill="#303033"/>
<path d="M1003.61 510.416H973.462V481.777H1003.61V510.416Z" fill="#303033"/>
<path d="M1005.12 481.777H973.462V453.138H1005.12V481.777Z" fill="#303033"/>
<path d="M976.477 442.586H949.345V416.962H976.477V442.586Z" fill="#303033"/>
<path d="M1000.59 422.991H976.477V398.874H1000.59V422.991Z" fill="#303033"/>
<path d="M997.579 389.83H980.999V374.757H997.579V389.83Z" fill="#303033"/>
<path d="M941.808 392.845H923.72V373.25H941.808V392.845Z" fill="#303033"/>
<path d="M908.647 392.845H889.052V373.25H908.647V392.845Z" fill="#303033"/>
<path d="M857.398 392.845H837.803V373.25H857.398V392.845Z" fill="#303033"/>
<path d="M821.222 382.293H804.642V365.713H821.222V382.293Z" fill="#303033"/>
<path d="M780.525 380.786H768.466V367.22H780.525V380.786Z" fill="#303033"/>
<path d="M757.915 392.845H753.393V385.308H757.915V392.845Z" fill="#303033"/>
<path d="M733.798 386.815H732.29V385.308H733.798V386.815Z" fill="#303033"/>
<path d="M681.041 385.308H676.519V380.786H681.041V385.308Z" fill="#303033"/>
<path d="M649.387 398.874H641.851V389.83H649.387V398.874Z" fill="#303033"/>
<path d="M628.285 386.815H616.226V377.771H628.285V386.815Z" fill="#303033"/>
<path d="M622.256 392.845H610.197V380.786H622.256V392.845Z" fill="#303033"/>
<path d="M593.616 462.182H574.021V442.586H593.616V462.182Z" fill="#303033"/>
<path d="M602.66 477.255H581.558V457.66H602.66V477.255Z" fill="#303033"/>
<path d="M601.153 517.953H578.543V493.835H601.153V517.953Z" fill="#303033"/>
<path d="M622.256 537.548H598.138V513.431H622.256V537.548Z" fill="#303033"/>
<path d="M596.631 569.202H572.514V546.592H596.631V569.202Z" fill="#303033"/>
<path d="M605.675 593.319H581.558V569.202H605.675V593.319Z" fill="#303033"/>
<path d="M605.675 620.451H581.558V596.333H605.675V620.451Z" fill="#303033"/>
<path d="M610.197 653.612H584.573V626.48H610.197V653.612Z" fill="#303033"/>
<path d="M605.675 677.729H578.543V650.597H605.675V677.729Z" fill="#303033"/>
<path d="M605.675 706.368H581.558V680.744H605.675V706.368Z" fill="#303033"/>
<path d="M605.675 733.5H581.558V709.383H605.675V733.5Z" fill="#303033"/>
<path d="M602.66 760.632H584.573V741.037H602.66V760.632Z" fill="#303033"/>
<path d="M557.441 811.881H554.426V808.866H557.441V811.881Z" fill="#303033"/>
<path d="M602.66 798.315H601.153V796.808H602.66V798.315Z" fill="#303033"/>
<path d="M610.197 816.402H605.675V813.388H610.197V816.402Z" fill="#303033"/>
<path d="M661.446 804.344H656.924V801.329H661.446V804.344Z" fill="#303033"/>
<path d="M690.085 811.881H688.578V805.852H690.085V811.881Z" fill="#303033"/>
<path d="M717.217 801.33H714.202V796.808H717.217V801.33Z" fill="#303033"/>
<path d="M1029.23 704.861H1005.12V680.744H1029.23V704.861Z" fill="#303033"/>
<path d="M1032.25 680.744H1003.61V649.09H1032.25V680.744Z" fill="#303033"/>
<path d="M1032.25 650.597H1003.61V621.958H1032.25V650.597Z" fill="#303033"/>
<path d="M1032.25 624.973H1003.61V593.319H1032.25V624.973Z" fill="#303033"/>
<path d="M1032.25 596.333H1003.61V564.68H1032.25V596.333Z" fill="#303033"/>
<path d="M1032.25 566.187H1003.61V537.548H1032.25V566.187Z" fill="#303033"/>
<path d="M1032.25 540.562H1003.61V508.909H1032.25V540.562Z" fill="#303033"/>
<path d="M1032.25 510.416H1003.61V478.762H1032.25V510.416Z" fill="#303033"/>
<path d="M1032.25 481.777H1003.61V453.138H1032.25V481.777Z" fill="#303033"/>
<path d="M1032.25 453.138H1003.61V426.006H1032.25V453.138Z" fill="#303033"/>
<path d="M1027.73 418.469H1008.13V401.889H1027.73V418.469Z" fill="#303033"/>
<path d="M993.057 358.176H985.521V350.64H993.057V358.176Z" fill="#303033"/>
<path d="M940.301 361.191H925.228V346.118H940.301V361.191Z" fill="#303033"/>
<path d="M911.662 361.191H896.589V346.118H911.662V361.191Z" fill="#303033"/>
<path d="M887.545 358.176H872.471V343.103H887.545V358.176Z" fill="#303033"/>
<path d="M852.876 361.191H840.818V349.132H852.876V361.191Z" fill="#303033"/>
<path d="M819.715 355.162H809.164V346.118H819.715V355.162Z" fill="#303033"/>
<path d="M797.105 353.654H792.583V349.132H797.105V353.654Z" fill="#303033"/>
<path d="M665.968 358.176H664.461V355.162H665.968V358.176Z" fill="#303033"/>
<path d="M652.402 355.162H646.373V350.64H652.402V355.162Z" fill="#303033"/>
<path d="M629.792 355.162H622.256V346.118H629.792V355.162Z" fill="#303033"/>
<path d="M598.138 358.176H589.094V349.132H598.138V358.176Z" fill="#303033"/>
<path d="M572.514 389.83H557.441V374.757H572.514V389.83Z" fill="#303033"/>
<path d="M574.021 418.469H557.441V401.889H574.021V418.469Z" fill="#303033"/>
<path d="M577.036 450.123H554.426V429.021H577.036V450.123Z" fill="#303033"/>
<path d="M577.036 478.762H552.919V454.645H577.036V478.762Z" fill="#303033"/>
<path d="M578.543 508.909H552.919V481.777H578.543V508.909Z" fill="#303033"/>
<path d="M578.543 537.548H552.919V510.416H578.543V537.548Z" fill="#303033"/>
<path d="M578.543 564.68H552.919V540.562H578.543V564.68Z" fill="#303033"/>
<path d="M578.543 593.319H552.919V566.187H578.543V593.319Z" fill="#303033"/>
<path d="M578.543 621.958H552.919V596.333H578.543V621.958Z" fill="#303033"/>
<path d="M578.543 650.597H552.919V621.958H578.543V650.597Z" fill="#303033"/>
<path d="M578.543 677.729H552.919V650.597H578.543V677.729Z" fill="#303033"/>
<path d="M577.036 700.339H552.919V676.222H577.036V700.339Z" fill="#303033"/>
<path d="M577.036 731.993H554.426V712.397H577.036V731.993Z" fill="#303033"/>
<path d="M569.499 781.734H560.455V772.69H569.499V781.734Z" fill="#303033"/>
<path d="M1051.84 670.192H1039.78V658.134H1051.84V670.192Z" fill="#303033"/>
<path d="M1060.89 650.597H1029.23V621.958H1060.89V650.597Z" fill="#303033"/>
<path d="M1060.89 624.973H1029.23V593.319H1060.89V624.973Z" fill="#303033"/>
<path d="M1060.89 596.333H1029.23V564.68H1060.89V596.333Z" fill="#303033"/>
<path d="M1060.89 566.187H1029.23V537.548H1060.89V566.187Z" fill="#303033"/>
<path d="M1060.89 540.562H1029.23V508.909H1060.89V540.562Z" fill="#303033"/>
<path d="M1060.89 510.416H1029.23V478.762H1060.89V510.416Z" fill="#303033"/>
<path d="M1059.38 478.762H1032.25V454.645H1059.38V478.762Z" fill="#303033"/>
<path d="M1059.38 442.586H1041.29V429.021H1059.38V442.586Z" fill="#303033"/>
<path d="M1048.83 413.947H1044.31V409.425H1048.83V413.947Z" fill="#303033"/>
<path d="M961.403 326.522H959.896V325.015H961.403V326.522Z" fill="#303033"/>
<path d="M940.301 325.015H935.779V318.986H940.301V325.015Z" fill="#303033"/>
<path d="M905.633 329.537H901.111V325.015H905.633V329.537Z" fill="#303033"/>
<path d="M880.008 329.537H872.471V325.015H880.008V329.537Z" fill="#303033"/>
<path d="M849.862 326.522H845.34V325.015H849.862V326.522Z" fill="#303033"/>
<path d="M665.968 322H664.461V318.986H665.968V322Z" fill="#303033"/>
<path d="M622.256 326.522H620.748V325.015H622.256V326.522Z" fill="#303033"/>
<path d="M596.631 329.537H590.602V325.015H596.631V329.537Z" fill="#303033"/>
<path d="M569.499 338.581H564.977V334.059H569.499V338.581Z" fill="#303033"/>
<path d="M542.367 322H537.845V318.986H542.367V322Z" fill="#303033"/>
<path d="M540.86 358.176H533.323V349.132H540.86V358.176Z" fill="#303033"/>
<path d="M549.904 386.815H536.338V373.25H549.904V386.815Z" fill="#303033"/>
<path d="M548.397 421.484H525.787V398.874H548.397V421.484Z" fill="#303033"/>
<path d="M549.904 453.138H522.772V426.006H549.904V453.138Z" fill="#303033"/>
<path d="M552.919 481.777H522.772V453.138H552.919V481.777Z" fill="#303033"/>
<path d="M552.919 510.416H521.265V478.762H552.919V510.416Z" fill="#303033"/>
<path d="M552.919 540.562H521.265V508.909H552.919V540.562Z" fill="#303033"/>
<path d="M552.919 566.187H521.265V537.548H552.919V566.187Z" fill="#303033"/>
<path d="M552.919 596.333H521.265V564.68H552.919V596.333Z" fill="#303033"/>
<path d="M552.919 624.973H521.265V593.319H552.919V624.973Z" fill="#303033"/>
<path d="M552.919 650.597H521.265V621.958H552.919V650.597Z" fill="#303033"/>
<path d="M552.919 680.744H521.265V650.597H552.919V680.744Z" fill="#303033"/>
<path d="M548.397 738.022H525.787V716.919H548.397V738.022Z" fill="#303033"/>
<path d="M545.382 762.139H530.309V748.573H545.382V762.139Z" fill="#303033"/>
<path d="M540.86 781.734H533.323V774.198H540.86V781.734Z" fill="#303033"/>
<path d="M1080.48 585.782H1068.42V573.724H1080.48V585.782Z" fill="#303033"/>
<path d="M1085 557.143H1071.44V540.562H1085V557.143Z" fill="#303033"/>
<path d="M1080.48 530.011H1065.41V514.938H1080.48V530.011Z" fill="#303033"/>
<path d="M1077.47 501.372H1068.42V490.821H1077.47V501.372Z" fill="#303033"/>
<path d="M513.728 329.537H509.206V326.522H513.728V329.537Z" fill="#303033"/>
<path d="M513.728 358.176H504.684V349.132H513.728V358.176Z" fill="#303033"/>
<path d="M501.67 392.845H486.596V374.757H501.67V392.845Z" fill="#303033"/>
<path d="M525.787 416.962H504.684V394.352H525.787V416.962Z" fill="#303033"/>
<path d="M521.265 453.138H497.148V426.006H521.265V453.138Z" fill="#303033"/>
<path d="M522.772 481.777H494.133V453.138H522.772V481.777Z" fill="#303033"/>
<path d="M522.772 510.416H494.133V478.762H522.772V510.416Z" fill="#303033"/>
<path d="M522.772 540.562H494.133V508.909H522.772V540.562Z" fill="#303033"/>
<path d="M522.772 566.187H494.133V537.548H522.772V566.187Z" fill="#303033"/>
<path d="M522.772 596.333H494.133V564.68H522.772V596.333Z" fill="#303033"/>
<path d="M522.772 624.973H494.133V593.319H522.772V624.973Z" fill="#303033"/>
<path d="M522.772 650.597H494.133V621.958H522.772V650.597Z" fill="#303033"/>
<path d="M522.772 680.744H494.133V650.597H522.772V680.744Z" fill="#303033"/>
<path d="M518.25 704.861H492.626V677.729H518.25V704.861Z" fill="#303033"/>
<path d="M518.25 731.993H498.655V712.397H518.25V731.993Z" fill="#303033"/>
<path d="M510.714 757.617H498.655V744.051H510.714V757.617Z" fill="#303033"/>
<path d="M525.787 769.676H521.265V762.139H525.787V769.676Z" fill="#303033"/>
<path d="M1115.15 624.973H1083.5V593.319H1115.15V624.973Z" fill="#303033"/>
<path d="M1116.66 596.333H1088.02V564.68H1116.66V596.333Z" fill="#303033"/>
<path d="M1116.66 566.187H1088.02V537.548H1116.66V566.187Z" fill="#303033"/>
<path d="M1116.66 540.562H1085V508.909H1116.66V540.562Z" fill="#303033"/>
<path d="M1116.66 502.879H1095.56V481.777H1116.66V502.879Z" fill="#303033"/>
<path d="M1104.6 469.718H1100.08V465.196H1104.6V469.718Z" fill="#303033"/>
<path d="M482.074 329.537H477.552V325.015H482.074V329.537Z" fill="#303033"/>
<path d="M482.074 350.64H473.031V343.103H482.074V350.64Z" fill="#303033"/>
<path d="M486.596 389.83H473.031V374.757H486.596V389.83Z" fill="#303033"/>
<path d="M492.626 413.947H474.538V397.367H492.626V413.947Z" fill="#303033"/>
<path d="M506.192 457.66H485.089V435.05H506.192V457.66Z" fill="#303033"/>
<path d="M492.626 478.762H468.509V454.645H492.626V478.762Z" fill="#303033"/>
<path d="M497.148 508.909H470.016V481.777H497.148V508.909Z" fill="#303033"/>
<path d="M498.655 534.533H473.031V508.909H498.655V534.533Z" fill="#303033"/>
<path d="M489.611 569.202H462.479V542.07H489.611V569.202Z" fill="#303033"/>
<path d="M504.684 600.855H477.552V573.724H504.684V600.855Z" fill="#303033"/>
<path d="M494.133 621.958H468.509V596.333H494.133V621.958Z" fill="#303033"/>
<path d="M494.133 650.597H465.494V621.958H494.133V650.597Z" fill="#303033"/>
<path d="M494.133 680.744H465.494V650.597H494.133V680.744Z" fill="#303033"/>
<path d="M497.148 697.324H470.016V673.207H497.148V697.324Z" fill="#303033"/>
<path d="M492.626 731.993H470.016V712.397H492.626V731.993Z" fill="#303033"/>
<path d="M486.596 757.617H473.031V744.051H486.596V757.617Z" fill="#303033"/>
<path d="M477.552 774.198H468.509V765.154H477.552V774.198Z" fill="#303033"/>
<path d="M1148.31 677.729H1116.66V649.09H1148.31V677.729Z" fill="#303033"/>
<path d="M1145.3 650.597H1115.15V621.958H1145.3V650.597Z" fill="#303033"/>
<path d="M1145.3 624.973H1115.15V593.319H1145.3V624.973Z" fill="#303033"/>
<path d="M1145.3 596.333H1115.15V564.68H1145.3V596.333Z" fill="#303033"/>
<path d="M1145.3 566.187H1115.15V537.548H1145.3V566.187Z" fill="#303033"/>
<path d="M1145.3 540.562H1115.15V508.909H1145.3V540.562Z" fill="#303033"/>
<path d="M1145.3 510.416H1115.15V478.762H1145.3V510.416Z" fill="#303033"/>
<path d="M1145.3 481.777H1115.15V453.138H1145.3V481.777Z" fill="#303033"/>
<path d="M1139.27 445.601H1124.19V430.528H1139.27V445.601Z" fill="#303033"/>
<path d="M442.884 312.957H438.362V306.927H442.884V312.957Z" fill="#303033"/>
<path d="M465.494 365.713H454.943V355.162H465.494V365.713Z" fill="#303033"/>
<path d="M460.972 418.469H442.884V401.889H460.972V418.469Z" fill="#303033"/>
<path d="M460.972 454.645H441.377V435.05H460.972V454.645Z" fill="#303033"/>
<path d="M462.479 477.255H441.377V457.66H462.479V477.255Z" fill="#303033"/>
<path d="M470.016 508.909H445.899V484.792H470.016V508.909Z" fill="#303033"/>
<path d="M457.957 545.084H433.84V520.967H457.957V545.084Z" fill="#303033"/>
<path d="M465.494 566.187H438.362V537.548H465.494V566.187Z" fill="#303033"/>
<path d="M468.509 596.333H438.362V566.187H468.509V596.333Z" fill="#303033"/>
<path d="M468.509 624.973H436.855V593.319H468.509V624.973Z" fill="#303033"/>
<path d="M468.509 650.597H436.855V621.958H468.509V650.597Z" fill="#303033"/>
<path d="M468.509 680.744H436.855V649.09H468.509V680.744Z" fill="#303033"/>
<path d="M468.509 706.368H436.855V677.729H468.509V706.368Z" fill="#303033"/>
<path d="M465.494 733.5H438.362V709.383H465.494V733.5Z" fill="#303033"/>
<path d="M460.972 760.632H442.884V741.037H460.972V760.632Z" fill="#303033"/>
<path d="M445.899 777.212H436.855V769.676H445.899V777.212Z" fill="#303033"/>
<path d="M1170.92 709.383H1140.77V677.729H1170.92V709.383Z" fill="#303033"/>
<path d="M1175.44 680.744H1143.79V649.09H1175.44V680.744Z" fill="#303033"/>
<path d="M1175.44 650.597H1143.79V621.958H1175.44V650.597Z" fill="#303033"/>
<path d="M1175.44 624.973H1143.79V593.319H1175.44V624.973Z" fill="#303033"/>
<path d="M1160.37 554.128H1155.85V549.606H1160.37V554.128Z" fill="#303033"/>
<path d="M1172.43 537.548H1143.79V508.909H1172.43V537.548Z" fill="#303033"/>
<path d="M1175.44 510.416H1143.79V478.762H1175.44V510.416Z" fill="#303033"/>
<path d="M1175.44 481.777H1143.79V453.138H1175.44V481.777Z" fill="#303033"/>
<path d="M1176.95 450.123H1148.31V421.484H1176.95V450.123Z" fill="#303033"/>
<path d="M1163.38 416.962H1152.83V406.411H1163.38V416.962Z" fill="#303033"/>
<path d="M421.781 331.044H418.767V329.537H421.781V331.044Z" fill="#303033"/>
<path d="M424.796 362.698H417.26V355.162H424.796V362.698Z" fill="#303033"/>
<path d="M438.362 389.83H426.303V377.771H438.362V389.83Z" fill="#303033"/>
<path d="M430.825 418.469H417.26V404.903H430.825V418.469Z" fill="#303033"/>
<path d="M433.84 448.616H414.245V429.021H433.84V448.616Z" fill="#303033"/>
<path d="M433.84 481.777H409.723V457.66H433.84V481.777Z" fill="#303033"/>
<path d="M436.855 508.909H409.723V481.777H436.855V508.909Z" fill="#303033"/>
<path d="M438.362 537.548H409.723V508.909H438.362V537.548Z" fill="#303033"/>
<path d="M438.362 566.187H409.723V537.548H438.362V566.187Z" fill="#303033"/>
<path d="M438.362 596.333H409.723V564.68H438.362V596.333Z" fill="#303033"/>
<path d="M438.362 650.597H409.723V621.958H438.362V650.597Z" fill="#303033"/>
<path d="M438.362 680.744H409.723V649.09H438.362V680.744Z" fill="#303033"/>
<path d="M438.362 709.383H409.723V677.729H438.362V709.383Z" fill="#303033"/>
<path d="M438.362 736.515H409.723V706.368H438.362V736.515Z" fill="#303033"/>
<path d="M426.303 781.734H418.767V774.198H426.303V781.734Z" fill="#303033"/>
<path d="M1199.56 709.383H1167.91V680.744H1199.56V709.383Z" fill="#303033"/>
<path d="M1201.07 680.744H1172.43V649.09H1201.07V680.744Z" fill="#303033"/>
<path d="M1207.1 477.255H1176.95V445.601H1207.1V477.255Z" fill="#303033"/>
<path d="M1201.07 454.645H1172.43V422.991H1201.07V454.645Z" fill="#303033"/>
<path d="M1201.07 426.006H1172.43V394.352H1201.07V426.006Z" fill="#303033"/>
<path d="M390.128 361.191H385.606V355.162H390.128V361.191Z" fill="#303033"/>
<path d="M400.679 386.815H390.128V377.771H400.679V386.815Z" fill="#303033"/>
<path d="M390.128 421.484H373.547V404.903H390.128V421.484Z" fill="#303033"/>
<path d="M409.723 448.616H387.113V422.991H409.723V448.616Z" fill="#303033"/>
<path d="M409.723 481.777H382.591V457.66H409.723V481.777Z" fill="#303033"/>
<path d="M409.723 510.416H381.084V481.777H409.723V510.416Z" fill="#303033"/>
<path d="M412.738 540.562H381.084V508.909H412.738V540.562Z" fill="#303033"/>
<path d="M412.738 566.187H381.084V537.548H412.738V566.187Z" fill="#303033"/>
<path d="M412.738 596.333H381.084V564.68H412.738V596.333Z" fill="#303033"/>
<path d="M412.738 624.973H381.084V593.319H412.738V624.973Z" fill="#303033"/>
<path d="M412.738 650.597H381.084V621.958H412.738V650.597Z" fill="#303033"/>
<path d="M412.738 680.744H381.084V649.09H412.738V680.744Z" fill="#303033"/>
<path d="M412.738 709.383H381.084V677.729H412.738V709.383Z" fill="#303033"/>
<path d="M405.201 757.617H387.113V741.037H405.201V757.617Z" fill="#303033"/>
<path d="M397.664 780.227H394.65V777.212H397.664V780.227Z" fill="#303033"/>
<path d="M1231.21 738.022H1199.56V709.383H1231.21V738.022Z" fill="#303033"/>
<path d="M1231.21 709.383H1199.56V677.729H1231.21V709.383Z" fill="#303033"/>
<path d="M1231.21 454.645H1199.56V422.991H1231.21V454.645Z" fill="#303033"/>
<path d="M1231.21 426.006H1199.56V394.352H1231.21V426.006Z" fill="#303033"/>
<path d="M369.025 355.162H366.01V353.654H369.025V355.162Z" fill="#303033"/>
<path d="M375.054 385.308H366.01V373.25H375.054V385.308Z" fill="#303033"/>
<path d="M375.054 418.469H358.474V401.889H375.054V418.469Z" fill="#303033"/>
<path d="M385.606 454.645H362.996V433.542H385.606V454.645Z" fill="#303033"/>
<path d="M382.591 481.777H358.474V457.66H382.591V481.777Z" fill="#303033"/>
<path d="M381.084 508.909H353.952V481.777H381.084V508.909Z" fill="#303033"/>
<path d="M385.606 540.562H358.474V513.431H385.606V540.562Z" fill="#303033"/>
<path d="M381.084 566.187H353.952V537.548H381.084V566.187Z" fill="#303033"/>
<path d="M381.084 596.333H353.952V566.187H381.084V596.333Z" fill="#303033"/>
<path d="M381.084 621.958H353.952V593.319H381.084V621.958Z" fill="#303033"/>
<path d="M382.591 650.597H353.952V621.958H382.591V650.597Z" fill="#303033"/>
<path d="M382.591 680.744H353.952V650.597H382.591V680.744Z" fill="#303033"/>
<path d="M381.084 706.368H353.952V680.744H381.084V706.368Z" fill="#303033"/>
<path d="M378.069 731.993H356.967V712.397H378.069V731.993Z" fill="#303033"/>
<path d="M370.532 753.095H362.996V745.559H370.532V753.095Z" fill="#303033"/>
<path d="M1259.85 736.515H1228.2V706.368H1259.85V736.515Z" fill="#303033"/>
<path d="M1259.85 709.383H1228.2V677.729H1259.85V709.383Z" fill="#303033"/>
<path d="M1259.85 454.645H1228.2V422.991H1259.85V454.645Z" fill="#303033"/>
<path d="M1259.85 426.006H1228.2V394.352H1259.85V426.006Z" fill="#303033"/>
<path d="M341.894 358.176H334.357V350.64H341.894V358.176Z" fill="#303033"/>
<path d="M346.416 389.83H332.85V374.757H346.416V389.83Z" fill="#303033"/>
<path d="M350.937 450.123H326.82V429.021H350.937V450.123Z" fill="#303033"/>
<path d="M344.908 490.821H317.776V465.196H344.908V490.821Z" fill="#303033"/>
<path d="M349.43 508.909H322.298V481.777H349.43V508.909Z" fill="#303033"/>
<path d="M346.416 542.07H317.776V513.431H346.416V542.07Z" fill="#303033"/>
<path d="M356.967 569.202H329.835V542.07H356.967V569.202Z" fill="#303033"/>
<path d="M341.894 593.319H314.762V564.68H341.894V593.319Z" fill="#303033"/>
<path d="M353.952 621.958H325.313V596.333H353.952V621.958Z" fill="#303033"/>
<path d="M350.937 650.597H325.313V621.958H350.937V650.597Z" fill="#303033"/>
<path d="M349.43 676.222H326.82V653.612H349.43V676.222Z" fill="#303033"/>
<path d="M349.43 697.324H337.372V682.251H349.43V697.324Z" fill="#303033"/>
<path d="M341.894 724.456H337.372V718.427H341.894V724.456Z" fill="#303033"/>
<path d="M1286.99 736.515H1256.84V706.368H1286.99V736.515Z" fill="#303033"/>
<path d="M1286.99 709.383H1256.84V677.729H1286.99V709.383Z" fill="#303033"/>
<path d="M1286.99 454.645H1256.84V422.991H1286.99V454.645Z" fill="#303033"/>
<path d="M1286.99 426.006H1256.84V394.352H1286.99V426.006Z" fill="#303033"/>
<path d="M326.82 331.044H325.313V329.537H326.82V331.044Z" fill="#303033"/>
<path d="M319.284 355.162H310.24V346.118H319.284V355.162Z" fill="#303033"/>
<path d="M322.298 421.484H298.181V398.874H322.298V421.484Z" fill="#303033"/>
<path d="M325.313 453.138H295.167V422.991H325.313V453.138Z" fill="#303033"/>
<path d="M326.82 510.416H295.167V478.762H326.82V510.416Z" fill="#303033"/>
<path d="M326.82 540.562H295.167V508.909H326.82V540.562Z" fill="#303033"/>
<path d="M326.82 566.187H295.167V537.548H326.82V566.187Z" fill="#303033"/>
<path d="M325.313 596.333H295.167V566.187H325.313V596.333Z" fill="#303033"/>
<path d="M322.298 620.451H301.196V597.841H322.298V620.451Z" fill="#303033"/>
<path d="M804.642 588.797H777.51V561.665H804.642V588.797Z" fill="#303033"/>
<path d="M745.856 644.568H721.739V620.451H745.856V644.568Z" fill="#303033"/>
<path d="M831.774 533.026H806.149V505.894H831.774V533.026Z" fill="#303033"/>
<path d="M804.642 673.207H777.51V646.075H804.642V673.207Z" fill="#303033"/>
<path d="M744.349 498.357H724.754V481.777H744.349V498.357Z" fill="#303033"/>
<path d="M712.695 525.489H700.636V513.431H712.695V525.489Z" fill="#303033"/>
<path d="M712.695 582.768H700.636V569.202H712.695V582.768Z" fill="#303033"/>
<path d="M860.413 701.846H836.296V676.222H860.413V701.846Z" fill="#303033"/>
<path d="M860.413 474.24H836.296V450.123H860.413V474.24Z" fill="#303033"/>
<path d="M801.627 474.24H780.525V450.123H801.627V474.24Z" fill="#303033"/>
<path d="M772.988 472.733H753.393V453.138H772.988V472.733Z" fill="#303033"/>
<path d="M658.431 756.11H640.344V736.515H658.431V756.11Z" fill="#303033"/>
<path d="M797.105 750.081H785.047V738.022H797.105V750.081Z" fill="#303033"/>
<path d="M855.891 753.095H837.803V736.515H855.891V753.095Z" fill="#303033"/>
<path d="M828.759 416.962H809.164V397.367H828.759V416.962Z" fill="#303033"/>
<path d="M632.807 728.978H610.197V704.861H632.807V728.978Z" fill="#303033"/>
<path d="M971.955 386.815H949.345V367.22H971.955V386.815Z" fill="#303033"/>
<path d="M884.53 386.815H867.949V367.22H884.53V386.815Z" fill="#303033"/>
<path d="M601.153 413.947H586.08V397.367H601.153V413.947Z" fill="#303033"/>
<path d="M1021.7 382.293H1012.65V373.25H1021.7V382.293Z" fill="#303033"/>
<path d="M967.433 355.162H953.867V343.103H967.433V355.162Z" fill="#303033"/>
<path d="M569.499 353.654H560.455V343.103H569.499V353.654Z" fill="#303033"/>
<path d="M574.021 753.095H557.441V736.515H574.021V753.095Z" fill="#303033"/>
<path d="M549.904 701.846H522.772V676.222H549.904V701.846Z" fill="#303033"/>
<path d="M457.957 385.308H445.899V370.235H457.957V385.308Z" fill="#303033"/>
<path d="M438.362 620.451H406.708V588.797H438.362V620.451Z" fill="#303033"/>
<path d="M433.84 756.11H414.245V736.515H433.84V756.11Z" fill="#303033"/>
<path d="M406.708 728.978H382.591V704.861H406.708V728.978Z" fill="#303033"/>
<path d="M349.43 416.962H329.835V397.367H349.43V416.962Z" fill="#303033"/>
<path d="M319.284 386.815H302.703V367.22H319.284V386.815Z" fill="#303033"/>
<path d="M325.313 477.255H295.167V448.616H325.313V477.255Z" fill="#303033"/>
<path d="M317.776 638.539H302.703V624.973H317.776V638.539Z" fill="#303033"/>
<path d="M313.254 665.67H310.24V664.163H313.254V665.67Z" fill="#303033"/>
<path d="M1315.62 736.515H1283.97V706.368H1315.62V736.515Z" fill="#303033"/>
<path d="M1315.62 709.383H1283.97V677.729H1315.62V709.383Z" fill="#303033"/>
<path d="M1315.62 454.645H1283.97V422.991H1315.62V454.645Z" fill="#303033"/>
<path d="M286.123 338.581H283.108V337.074H286.123V338.581Z" fill="#303033"/>
<path d="M289.137 361.191H277.079V349.132H289.137V361.191Z" fill="#303033"/>
<path d="M293.659 392.845H271.049V373.25H293.659V392.845Z" fill="#303033"/>
<path d="M295.166 422.991H269.542V397.367H295.166V422.991Z" fill="#303033"/>
<path d="M298.181 454.645H266.527V422.991H298.181V454.645Z" fill="#303033"/>
<path d="M298.181 481.777H266.527V453.138H298.181V481.777Z" fill="#303033"/>
<path d="M298.181 510.416H266.527V478.762H298.181V510.416Z" fill="#303033"/>
<path d="M298.181 540.562H266.527V508.909H298.181V540.562Z" fill="#303033"/>
<path d="M298.181 566.187H266.527V537.548H298.181V566.187Z" fill="#303033"/>
<path d="M295.166 593.319H269.542V569.202H295.166V593.319Z" fill="#303033"/>
<path d="M289.137 617.436H266.527V597.841H289.137V617.436Z" fill="#303033"/>
<path d="M295.166 638.539H278.586V621.958H295.166V638.539Z" fill="#303033"/>
<path d="M290.645 673.207H274.064V658.134H290.645V673.207Z" fill="#303033"/>
<path d="M289.137 697.324H277.079V688.28H289.137V697.324Z" fill="#303033"/>
<path d="M283.108 724.456H281.601V718.427H283.108V724.456Z" fill="#303033"/>
<path d="M1344.26 481.777H1312.61V453.138H1344.26V481.777Z" fill="#303033"/>
<path d="M1344.26 454.645H1312.61V422.991H1344.26V454.645Z" fill="#303033"/>
<path d="M254.469 326.522H252.961V325.015H254.469V326.522Z" fill="#303033"/>
<path d="M258.991 361.191H249.947V349.132H258.991V361.191Z" fill="#303033"/>
<path d="M265.02 392.845H245.425V373.25H265.02V392.845Z" fill="#303033"/>
<path d="M269.542 426.006H239.396V397.367H269.542V426.006Z" fill="#303033"/>
<path d="M269.542 454.645H239.396V422.991H269.542V454.645Z" fill="#303033"/>
<path d="M269.542 481.777H239.396V453.138H269.542V481.777Z" fill="#303033"/>
<path d="M269.542 510.416H239.396V478.762H269.542V510.416Z" fill="#303033"/>
<path d="M269.542 540.562H239.396V508.909H269.542V540.562Z" fill="#303033"/>
<path d="M269.542 566.187H239.396V537.548H269.542V566.187Z" fill="#303033"/>
<path d="M269.542 596.333H239.396V564.68H269.542V596.333Z" fill="#303033"/>
<path d="M269.542 624.973H239.396V593.319H269.542V624.973Z" fill="#303033"/>
<path d="M269.542 650.597H239.396V621.958H269.542V650.597Z" fill="#303033"/>
<path d="M269.542 680.744H239.396V649.09H269.542V680.744Z" fill="#303033"/>
<path d="M269.542 709.383H239.396V677.729H269.542V709.383Z" fill="#303033"/>
<path d="M269.542 736.515H239.396V706.368H269.542V736.515Z" fill="#303033"/>
<path d="M230.352 358.176H221.308V350.64H230.352V358.176Z" fill="#303033"/>
<path d="M237.888 386.815H221.308V370.235H237.888V386.815Z" fill="#303033"/>
<path d="M237.888 422.991H213.771V398.874H237.888V422.991Z" fill="#303033"/>
<path d="M239.395 454.645H210.756V422.991H239.395V454.645Z" fill="#303033"/>
<path d="M239.395 481.777H210.756V453.138H239.395V481.777Z" fill="#303033"/>
<path d="M239.395 510.416H210.756V478.762H239.395V510.416Z" fill="#303033"/>
<path d="M239.395 540.562H210.756V508.909H239.395V540.562Z" fill="#303033"/>
<path d="M239.395 566.187H210.756V537.548H239.395V566.187Z" fill="#303033"/>
<path d="M239.395 596.333H210.756V564.68H239.395V596.333Z" fill="#303033"/>
<path d="M239.395 624.973H210.756V593.319H239.395V624.973Z" fill="#303033"/>
<path d="M239.395 650.597H210.756V621.958H239.395V650.597Z" fill="#303033"/>
<path d="M239.395 680.744H210.756V649.09H239.395V680.744Z" fill="#303033"/>
<path d="M239.395 709.383H210.756V677.729H239.395V709.383Z" fill="#303033"/>
<path d="M239.395 736.515H210.756V706.368H239.395V736.515Z" fill="#303033"/>
<path d="M198.698 355.162H197.19V353.654H198.698V355.162Z" fill="#303033"/>
<path d="M203.22 386.815H191.161V377.771H203.22V386.815Z" fill="#303033"/>
<path d="M206.234 418.469H189.654V401.889H206.234V418.469Z" fill="#303033"/>
<path d="M210.756 448.616H186.639V422.991H210.756V448.616Z" fill="#303033"/>
<path d="M222.815 478.762H198.698V454.645H222.815V478.762Z" fill="#303033"/>
<path d="M210.756 505.894H189.654V481.777H210.756V505.894Z" fill="#303033"/>
<path d="M213.771 530.011H191.161V510.416H213.771V530.011Z" fill="#303033"/>
<path d="M215.278 557.143H198.698V540.562H215.278V557.143Z" fill="#303033"/>
<path d="M221.308 588.797H206.234V573.724H221.308V588.797Z" fill="#303033"/>
<path d="M203.22 612.914H194.176V602.363H203.22V612.914Z" fill="#303033"/>
<path d="M198.698 638.539H197.19V637.031H198.698V638.539Z" fill="#303033"/>
<path d="M171.566 386.815H165.537V377.771H171.566V386.815Z" fill="#303033"/>
<path d="M174.581 413.947H159.507V398.874H174.581V413.947Z" fill="#303033"/>
<path d="M174.581 445.601H159.507V430.528H174.581V445.601Z" fill="#303033"/>
<path d="M171.566 474.24H158V460.674H171.566V474.24Z" fill="#303033"/>
<path d="M182.117 510.416H170.059V501.372H182.117V510.416Z" fill="#303033"/>
<path d="M171.566 525.489H167.044V520.967H171.566V525.489Z" fill="#303033"/>
<path d="M159.507 385.308H147.449V373.25H159.507V385.308Z" fill="#303033"/>
<path d="M153.478 422.991H129.361V397.367H153.478V422.991Z" fill="#303033"/>
<path d="M154.985 454.645H126.346V422.991H154.985V454.645Z" fill="#303033"/>
<path d="M154.985 481.777H126.346V453.138H154.985V481.777Z" fill="#303033"/>
<path d="M154.985 510.416H126.346V478.762H154.985V510.416Z" fill="#303033"/>
<path d="M154.985 540.562H126.346V508.909H154.985V540.562Z" fill="#303033"/>
<path d="M154.985 566.187H126.346V537.548H154.985V566.187Z" fill="#303033"/>
<path d="M154.985 596.333H126.346V564.68H154.985V596.333Z" fill="#303033"/>
<path d="M154.985 624.973H126.346V593.319H154.985V624.973Z" fill="#303033"/>
<path d="M154.985 650.597H126.346V621.958H154.985V650.597Z" fill="#303033"/>
<path d="M123.332 386.815H109.766V373.25H123.332V386.815Z" fill="#303033"/>
<path d="M129.361 426.006H97.707V394.352H129.361V426.006Z" fill="#303033"/>
<path d="M129.361 454.645H97.707V422.991H129.361V454.645Z" fill="#303033"/>
<path d="M129.361 481.777H97.707V453.138H129.361V481.777Z" fill="#303033"/>
<path d="M129.361 510.416H97.707V478.762H129.361V510.416Z" fill="#303033"/>
<path d="M129.361 540.562H97.707V508.909H129.361V540.562Z" fill="#303033"/>
<path d="M129.361 566.187H97.707V537.548H129.361V566.187Z" fill="#303033"/>
<path d="M129.361 596.333H97.707V564.68H129.361V596.333Z" fill="#303033"/>
<path d="M129.361 624.973H97.707V593.319H129.361V624.973Z" fill="#303033"/>
<path d="M129.361 650.597H97.707V621.958H129.361V650.597Z" fill="#303033"/>
<path d="M129.361 680.744H97.707V649.09H129.361V680.744Z" fill="#303033"/>
<path d="M129.361 709.383H97.707V677.729H129.361V709.383Z" fill="#303033"/>
<path d="M87.1558 385.308H82.6338V380.786H87.1558V385.308Z" fill="#303033"/>
<path d="M111.273 421.484H94.6924V401.889H111.273V421.484Z" fill="#303033"/>
<path d="M99.2144 454.645H78.1118V435.05H99.2144V454.645Z" fill="#303033"/>
<path d="M94.6924 477.255H75.0972V457.66H94.6924V477.255Z" fill="#303033"/>
<path d="M106.751 498.357H90.1704V484.792H106.751V498.357Z" fill="#303033"/>
<path d="M90.1704 528.504H79.6191V517.953H90.1704V528.504Z" fill="#303033"/>
<path d="M99.2144 680.744H70.5752V649.09H99.2144V680.744Z" fill="#303033"/>
<path d="M99.2144 709.383H70.5752V677.729H99.2144V709.383Z" fill="#303033"/>
<path d="M85.6484 724.456H82.6338V721.441H85.6484V724.456Z" fill="#303033"/>
<path d="M70.5751 709.383H41.9365V677.729H70.5751V709.383Z" fill="#303033"/>
<path d="M70.5751 736.515H41.9365V706.368H70.5751V736.515Z" fill="#303033"/>
<path d="M43.4441 709.383H11.7903V677.729H43.4441V709.383Z" fill="#303033"/>
<path d="M43.4441 736.515H11.7903V706.368H43.4441V736.515Z" fill="#303033"/>
<path d="M14.8049 709.383H-13.8342V677.729H14.8049V709.383Z" fill="#303033"/>
<path d="M14.8049 736.515H-13.8342V706.368H14.8049V736.515Z" fill="#303033"/>
<path d="M1265.9 400.75C1284.26 400.75 1301.69 403.634 1318.19 409.392C1334.69 415.154 1349.25 423.324 1361.85 433.907C1374.46 444.489 1384.97 457.331 1393.37 472.428C1401.78 487.53 1407.38 504.258 1410.18 522.622H1355.55C1351.19 497.409 1341.38 478.028 1326.13 464.489C1310.88 450.949 1291.42 444.173 1267.76 444.173L1265.9 400.75ZM1271.04 688.857C1293.75 688.857 1312.9 682.014 1328.47 668.311C1344.03 654.614 1353.84 635.474 1357.88 610.876H1412.52C1409.71 629.25 1404.04 645.899 1395.48 660.839C1386.91 675.784 1376.25 688.553 1363.49 699.13C1350.72 709.717 1336.09 717.891 1319.59 723.645C1303.09 729.401 1285.66 732.286 1267.3 732.286L1271.04 688.857Z" fill="#303033"/>
<path d="M804.642 237.59H777.51V213.473H804.642V237.59Z" fill="#303033"/>
<path d="M833.281 237.59H806.149V213.473H833.281V237.59Z" fill="#303033"/>
<path d="M833.281 207.444H806.149V183.327H833.281V207.444Z" fill="#303033"/>
<path d="M833.281 181.819H806.149V154.688H833.281V181.819Z" fill="#303033"/>
<path d="M804.642 181.819H777.51V154.688H804.642V181.819Z" fill="#303033"/>
<path d="M776.003 266.229H751.885V239.098H776.003V266.229Z" fill="#303033"/>
<path d="M804.642 266.229H777.51V239.098H804.642V266.229Z" fill="#303033"/>
<path d="M833.281 266.229H806.149V239.098H833.281V266.229Z" fill="#303033"/>
<path d="M853.31 181.473L831.287 181.945L830.815 159.921L852.838 159.449L853.31 181.473Z" fill="#303033"/>
<path d="M804.642 151.673H777.51V127.556H804.642V151.673Z" fill="#303033"/>
<path d="M776.003 294.869H751.885V269.244H776.003V294.869Z" fill="#303033"/>
<path d="M833.281 293.361H806.149V269.244H833.281V293.361Z" fill="#303033"/>
<path d="M860.413 294.869H836.296V269.244H860.413V294.869Z" fill="#303033"/>
<path d="M685.563 318.986H664.461V297.883H685.563V318.986Z" fill="#303033"/>
<path d="M720.232 314.464H700.636V297.883H720.232V314.464Z" fill="#303033"/>
<path d="M745.856 318.986H724.754V299.391H745.856V318.986Z" fill="#303033"/>
<path d="M776.003 322H751.885V297.883H776.003V322Z" fill="#303033"/>
<path d="M804.642 322H777.51V297.883H804.642V322Z" fill="#303033"/>
<path d="M831.774 322H806.149V297.883H831.774V322Z" fill="#303033"/>
<path d="M889.052 325.015H861.92V294.869H889.052V325.015Z" fill="#303033"/>
<path d="M917.691 325.015H889.052V294.869H917.691V325.015Z" fill="#303033"/>
<path d="M661.446 346.118H637.329V325.015H661.446V346.118Z" fill="#303033"/>
<path d="M684.056 346.118H664.461V325.015H684.056V346.118Z" fill="#303033"/>
<path d="M708.173 350.64H688.578V331.044H708.173V350.64Z" fill="#303033"/>
<path d="M748.871 334.059H729.276V317.479H748.871V334.059Z" fill="#303033"/>
<path d="M780.525 337.074H760.929V317.479H780.525V337.074Z" fill="#303033"/>
<path d="M801.627 349.132H780.525V326.522H801.627V349.132Z" fill="#303033"/>
<path d="M947.838 325.015H917.691V294.869H947.838V325.015Z" fill="#303033"/>
<path d="M664.461 322H637.329V297.883H664.461V322Z" fill="#303033"/>
<path d="M632.807 374.757H610.197V355.162H632.807V374.757Z" fill="#303033"/>
<path d="M688.578 374.757H668.983V355.162H688.578V374.757Z" fill="#303033"/>
<path d="M720.232 370.235H702.144V353.654H720.232V370.235Z" fill="#303033"/>
<path d="M760.929 358.176H745.856V343.103H760.929V358.176Z" fill="#303033"/>
<path d="M777.51 365.713H763.944V353.654H777.51V365.713Z" fill="#303033"/>
<path d="M961.403 367.22H959.896V362.698H961.403V367.22Z" fill="#303033"/>
<path d="M976.477 353.654H944.823V322H976.477V353.654Z" fill="#303033"/>
<path d="M976.477 325.015H944.823V294.869H976.477V325.015Z" fill="#303033"/>
<path d="M628.285 294.869H601.153V266.229H628.285V294.869Z" fill="#303033"/>
<path d="M641.851 317.479H616.226V293.361H641.851V317.479Z" fill="#303033"/>
<path d="M792.583 394.352H789.569V392.845H792.583V394.352Z" fill="#303033"/>
<path d="M997.579 346.118H979.491V329.537H997.579V346.118Z" fill="#303033"/>
<path d="M1005.12 325.015H973.462V294.869H1005.12V325.015Z" fill="#303033"/>
<path d="M1005.12 297.883H973.462V266.229H1005.12V297.883Z" fill="#303033"/>
<path d="M596.631 186.341H572.514V162.224H596.631V186.341Z" fill="#303033"/>
<path d="M605.675 207.444H581.558V183.327H605.675V207.444Z" fill="#303033"/>
<path d="M605.675 237.59H581.558V213.473H605.675V237.59Z" fill="#303033"/>
<path d="M610.197 270.751H584.573V242.112H610.197V270.751Z" fill="#303033"/>
<path d="M605.675 294.869H578.543V269.244H605.675V294.869Z" fill="#303033"/>
<path d="M605.675 322H581.558V297.883H605.675V322Z" fill="#303033"/>
<path d="M605.675 349.132H581.558V326.522H605.675V349.132Z" fill="#303033"/>
<path d="M602.66 374.757H584.573V355.162H602.66V374.757Z" fill="#303033"/>
<path d="M557.441 426.006H554.426V422.991H557.441V426.006Z" fill="#303033"/>
<path d="M610.197 433.542H605.675V429.021H610.197V433.542Z" fill="#303033"/>
<path d="M661.446 418.469H656.924V416.962H661.446V418.469Z" fill="#303033"/>
<path d="M1029.23 322H1005.12V297.883H1029.23V322Z" fill="#303033"/>
<path d="M1032.25 297.883H1003.61V266.229H1032.25V297.883Z" fill="#303033"/>
<path d="M577.036 317.479H552.919V293.361H577.036V317.479Z" fill="#303033"/>
<path d="M577.036 349.132H554.426V326.522H577.036V349.132Z" fill="#303033"/>
<path d="M1051.84 287.332H1039.78V275.273H1051.84V287.332Z" fill="#303033"/>
<path d="M545.382 377.771H530.309V362.698H545.382V377.771Z" fill="#303033"/>
<path d="M540.86 397.367H533.323V389.83H540.86V397.367Z" fill="#303033"/>
<path d="M1085 174.283H1071.44V157.702H1085V174.283Z" fill="#303033"/>
<path d="M510.714 374.757H498.655V361.191H510.714V374.757Z" fill="#303033"/>
<path d="M525.787 385.308H521.265V380.786H525.787V385.308Z" fill="#303033"/>
<path d="M494.133 294.869H465.494V266.229H494.133V294.869Z" fill="#303033"/>
<path d="M497.148 314.464H470.016V287.332H497.148V314.464Z" fill="#303033"/>
<path d="M492.626 349.132H470.016V326.522H492.626V349.132Z" fill="#303033"/>
<path d="M1148.31 294.869H1116.66V263.215H1148.31V294.869Z" fill="#303033"/>
<path d="M1145.3 239.098H1115.15V210.458H1145.3V239.098Z" fill="#303033"/>
<path d="M468.509 297.883H436.855V266.229H468.509V297.883Z" fill="#303033"/>
<path d="M445.899 394.352H436.855V385.308H445.899V394.352Z" fill="#303033"/>
<path d="M1170.92 326.522H1140.77V294.869H1170.92V326.522Z" fill="#303033"/>
<path d="M1175.44 297.883H1143.79V266.229H1175.44V297.883Z" fill="#303033"/>
<path d="M1175.44 269.244H1143.79V237.59H1175.44V269.244Z" fill="#303033"/>
<path d="M1175.44 239.098H1143.79V210.458H1175.44V239.098Z" fill="#303033"/>
<path d="M1160.37 171.268H1155.85V163.731H1160.37V171.268Z" fill="#303033"/>
<path d="M438.362 297.883H409.723V266.229H438.362V297.883Z" fill="#303033"/>
<path d="M426.303 397.367H418.767V389.83H426.303V397.367Z" fill="#303033"/>
<path d="M1199.56 326.522H1167.91V294.869H1199.56V326.522Z" fill="#303033"/>
<path d="M1201.07 297.883H1172.43V266.229H1201.07V297.883Z" fill="#303033"/>
<path d="M412.738 269.244H381.084V237.59H412.738V269.244Z" fill="#303033"/>
<path d="M412.738 297.883H381.084V266.229H412.738V297.883Z" fill="#303033"/>
<path d="M412.738 325.015H381.084V294.869H412.738V325.015Z" fill="#303033"/>
<path d="M405.201 374.757H387.113V358.176H405.201V374.757Z" fill="#303033"/>
<path d="M397.664 394.352H394.65V392.845H397.664V394.352Z" fill="#303033"/>
<path d="M1231.21 355.162H1199.56V325.015H1231.21V355.162Z" fill="#303033"/>
<path d="M1231.21 325.015H1199.56V294.869H1231.21V325.015Z" fill="#303033"/>
<path d="M382.591 269.244H353.952V239.098H382.591V269.244Z" fill="#303033"/>
<path d="M382.591 294.869H353.952V266.229H382.591V294.869Z" fill="#303033"/>
<path d="M381.084 322H353.952V294.869H381.084V322Z" fill="#303033"/>
<path d="M378.069 349.132H356.967V326.522H378.069V349.132Z" fill="#303033"/>
<path d="M370.532 370.235H362.996V362.698H370.532V370.235Z" fill="#303033"/>
<path d="M1259.85 353.654H1228.2V322H1259.85V353.654Z" fill="#303033"/>
<path d="M1259.85 325.015H1228.2V294.869H1259.85V325.015Z" fill="#303033"/>
<path d="M353.952 239.098H325.313V210.458H353.952V239.098Z" fill="#303033"/>
<path d="M350.937 266.229H325.313V239.098H350.937V266.229Z" fill="#303033"/>
<path d="M349.43 293.361H326.82V270.751H349.43V293.361Z" fill="#303033"/>
<path d="M349.43 312.957H337.372V299.391H349.43V312.957Z" fill="#303033"/>
<path d="M341.894 338.581H337.372V337.074H341.894V338.581Z" fill="#303033"/>
<path d="M1286.99 353.654H1256.84V322H1286.99V353.654Z" fill="#303033"/>
<path d="M1286.99 325.015H1256.84V294.869H1286.99V325.015Z" fill="#303033"/>
<path d="M313.254 282.81H310.24V281.303H313.254V282.81Z" fill="#303033"/>
<path d="M1315.62 353.654H1283.97V322H1315.62V353.654Z" fill="#303033"/>
<path d="M1315.62 325.015H1283.97V294.869H1315.62V325.015Z" fill="#303033"/>
<path d="M289.137 234.576H266.527V214.98H289.137V234.576Z" fill="#303033"/>
<path d="M295.166 254.171H278.586V237.59H295.166V254.171Z" fill="#303033"/>
<path d="M290.645 287.332H274.064V273.766H290.645V287.332Z" fill="#303033"/>
<path d="M289.137 314.464H277.079V305.42H289.137V314.464Z" fill="#303033"/>
<path d="M283.108 338.581H281.601V337.074H283.108V338.581Z" fill="#303033"/>
<path d="M269.542 269.244H239.396V237.59H269.542V269.244Z" fill="#303033"/>
<path d="M269.542 297.883H239.396V266.229H269.542V297.883Z" fill="#303033"/>
<path d="M269.542 325.015H239.396V294.869H269.542V325.015Z" fill="#303033"/>
<path d="M269.542 353.654H239.396V322H269.542V353.654Z" fill="#303033"/>
<path d="M239.395 269.244H210.756V237.59H239.395V269.244Z" fill="#303033"/>
<path d="M239.395 297.883H210.756V266.229H239.395V297.883Z" fill="#303033"/>
<path d="M239.395 325.015H210.756V294.869H239.395V325.015Z" fill="#303033"/>
<path d="M239.395 353.654H210.756V322H239.395V353.654Z" fill="#303033"/>
<path d="M203.22 230.054H194.176V219.502H203.22V230.054Z" fill="#303033"/>
<path d="M198.698 254.171H197.19V251.156H198.698V254.171Z" fill="#303033"/>
<path d="M171.566 142.629H167.044V138.107H171.566V142.629Z" fill="#303033"/>
<path d="M154.985 269.244H126.346V237.59H154.985V269.244Z" fill="#303033"/>
<path d="M129.361 239.098H97.707V210.458H129.361V239.098Z" fill="#303033"/>
<path d="M129.361 269.244H97.707V237.59H129.361V269.244Z" fill="#303033"/>
<path d="M129.361 297.883H97.707V266.229H129.361V297.883Z" fill="#303033"/>
<path d="M129.361 325.015H97.707V294.869H129.361V325.015Z" fill="#303033"/>
<path d="M99.2144 297.883H70.5752V266.229H99.2144V297.883Z" fill="#303033"/>
<path d="M99.2144 325.015H70.5752V294.869H99.2144V325.015Z" fill="#303033"/>
<path d="M85.6484 338.581H82.6338V337.074H85.6484V338.581Z" fill="#303033"/>
<path d="M70.5751 325.015H41.9365V294.869H70.5751V325.015Z" fill="#303033"/>
<path d="M70.5751 353.654H41.9365V322H70.5751V353.654Z" fill="#303033"/>
<path d="M43.4441 325.015H11.7903V294.869H43.4441V325.015Z" fill="#303033"/>
<path d="M43.4441 353.654H11.7903V322H43.4441V353.654Z" fill="#303033"/>
<path d="M14.8049 325.015H-13.8342V294.869H14.8049V325.015Z" fill="#303033"/>
<path d="M14.8049 353.654H-13.8342V322H14.8049V353.654Z" fill="#303033"/>
<path d="M1271.03 304.956C1293.75 304.956 1312.9 298.112 1328.47 284.411C1344.03 270.714 1353.84 251.574 1357.89 226.974H1412.52C1409.71 245.344 1404.03 261.998 1395.47 276.937C1386.91 291.882 1376.25 304.651 1363.49 315.228C1350.72 325.815 1336.09 333.985 1319.6 339.743C1303.09 345.501 1285.66 348.38 1267.3 348.38L1271.03 304.956Z" fill="#303033"/>
<path d="M-97.6843 9.3584H-52.0106V217.413C-52.0106 276.731 -21.3708 310.748 32.1006 310.748C85.5776 310.748 116.185 276.731 116.185 217.413V9.3584H161.886V215.96C161.886 303.47 114.732 353.532 32.1006 353.532C-50.558 353.532 -97.6843 303.47 -97.6843 215.96V9.3584Z" fill="#303033"/>
<path d="M225.15 9.35742H313.146L439.045 307.354H446.345V9.35742H492.044V344.779H406.009L278.149 44.8424H270.855V344.779H225.15V9.35742Z" fill="#303033"/>
<path d="M559.788 9.35742H605.493V302.975H763.006V344.779H559.788V9.35742Z" fill="#303033"/>
<path d="M815.888 177.062C815.888 254.367 864.027 310.748 931.589 310.748C999.177 310.748 1047.28 254.367 1047.28 177.062C1047.28 99.7736 999.177 43.3919 931.589 43.3919C864.027 43.3919 815.888 99.7736 815.888 177.062ZM1094.44 177.062C1094.44 279.159 1026.88 353.534 931.589 353.534C836.324 353.534 768.731 279.159 768.731 177.062C768.731 74.9754 836.324 0.607422 931.589 0.607422C1026.88 0.607422 1094.44 74.9754 1094.44 177.062Z" fill="#303033"/>
<path d="M1432.49 107.068V126.507H1387.76C1376.59 75.956 1340.14 43.3918 1289.06 43.3918C1222 43.3918 1174.34 99.7735 1174.34 177.062C1174.34 254.367 1222 310.748 1289.06 310.748C1340.14 310.748 1378.04 277.691 1388.75 226.653H1433.94V246.092C1414.49 311.237 1360.06 353.528 1289.06 353.528C1194.27 353.528 1127.18 279.159 1127.18 177.062C1127.18 74.9755 1194.27 0.607422 1289.06 0.607422C1360.06 0.607422 1413.51 42.4113 1432.49 107.068Z" fill="#303033"/>
<path d="M1610.57 150.814L1727.23 327.772V344.782H1683.96L1580.9 182.906L1528.88 240.756V344.782H1483.18V9.35596H1528.88V172.213H1534.73L1681.53 9.35596H1723.83V26.3669L1610.57 150.814Z" fill="#303033"/>
<path d="M-97.6843 400.259H-52.0106V608.314C-52.0106 667.631 -21.3708 701.649 32.1006 701.649C85.5776 701.649 116.185 667.631 116.185 608.314V400.259H161.886V606.861C161.886 694.37 114.732 744.432 32.1006 744.432C-50.558 744.432 -97.6843 694.37 -97.6843 606.861V400.259Z" fill="#303033"/>
<path d="M1610.57 541.716L1727.23 718.674V735.684H1683.96L1580.9 573.808L1528.88 631.652V735.684H1483.18V400.258H1528.88V563.115H1534.73L1681.53 400.258H1723.83V417.268L1610.57 541.716Z" fill="#303033"/>
<path d="M-97.6843 787.257H-52.0106V995.311C-52.0106 1054.63 -21.3708 1088.65 32.1006 1088.65C85.5776 1088.65 116.185 1054.63 116.185 995.311V787.257H161.886V993.858C161.886 1081.37 114.732 1131.43 32.1006 1131.43C-50.558 1131.43 -97.6843 1081.37 -97.6843 993.858V787.257Z" fill="#303033"/>
<path d="M225.15 787.258H313.146L439.045 1085.25H446.345V787.258H492.044V1122.68H406.009L278.149 822.744H270.855V1122.68H225.15V787.258Z" fill="#303033"/>
<path d="M559.788 787.258H605.493V1080.88H763.006V1122.68H559.788V787.258Z" fill="#303033"/>
<path d="M815.888 954.962C815.888 1032.27 864.027 1088.65 931.589 1088.65C999.177 1088.65 1047.28 1032.27 1047.28 954.962C1047.28 877.674 999.177 821.291 931.589 821.291C864.027 821.291 815.888 877.674 815.888 954.962ZM1094.44 954.962C1094.44 1057.06 1026.88 1131.43 931.589 1131.43C836.324 1131.43 768.731 1057.06 768.731 954.962C768.731 852.875 836.324 778.507 931.589 778.507C1026.88 778.507 1094.44 852.875 1094.44 954.962Z" fill="#303033"/>
<path d="M1432.49 884.968V904.408H1387.76C1376.59 853.856 1340.14 821.292 1289.06 821.292C1222 821.292 1174.34 877.674 1174.34 954.963C1174.34 1032.27 1222 1088.65 1289.06 1088.65C1340.14 1088.65 1378.04 1055.59 1388.75 1004.55H1433.94V1023.99C1414.49 1089.14 1360.06 1131.43 1289.06 1131.43C1194.27 1131.43 1127.18 1057.06 1127.18 954.963C1127.18 852.875 1194.27 778.508 1289.06 778.508C1360.06 778.508 1413.51 820.311 1432.49 884.968Z" fill="#303033"/>
<path d="M1610.57 928.715L1727.23 1105.67V1122.68H1683.96L1580.9 960.807L1528.88 1018.66V1122.68H1483.18V787.257H1528.88V950.114H1534.73L1681.53 787.257H1723.83V804.267L1610.57 928.715Z" fill="#303033"/>
<path d="M1843.75 422.658H-97.6843V1131.1H1843.75V422.658Z" fill="url(#paint0_linear_2_708)"/>
</g>
</g>
</g>
<defs>
<linearGradient id="paint0_linear_2_708" x1="873.032" y1="422.658" x2="873.032" y2="1131.1" gradientUnits="userSpaceOnUse">
<stop offset="0.166667" stop-color="#121312" stop-opacity="0"/>
<stop offset="1" stop-color="#121312"/>
</linearGradient>
<clipPath id="clip0_2_708">
<rect width="1825.37" height="1132" fill="white" transform="translate(-97.6843 0.607422)"/>
</clipPath>
</defs>
</svg>
