<svg width="34" height="46" viewBox="0 0 34 46" fill="none" xmlns="http://www.w3.org/2000/svg">
<path d="M4 22.9117C4 18.0091 4 15.5578 5.52304 14.0348C7.04609 12.5117 9.49739 12.5117 14.4 12.5117H19.6C24.5026 12.5117 26.954 12.5117 28.4769 14.0348C30 15.5578 30 18.0091 30 22.9117C30 27.8143 30 30.2657 28.4769 31.7886C26.954 33.3117 24.5026 33.3117 19.6 33.3117H14.4C9.49739 33.3117 7.04609 33.3117 5.52304 31.7886C4 30.2657 4 27.8143 4 22.9117Z" fill="#3AEBA5"/>
<path d="M4 20.3115H9.45639C10.3853 20.3115 10.8498 20.3115 11.2664 20.4571C11.5208 20.546 11.7598 20.674 11.9749 20.8363C12.3271 21.1022 12.5847 21.4885 13.1 22.2615C13.6153 23.0345 13.8729 23.4209 14.2251 23.6867C14.4402 23.8491 14.6792 23.977 14.9336 24.0659C15.3502 24.2115 15.8147 24.2115 16.7436 24.2115H17.2564C18.1853 24.2115 18.6498 24.2115 19.0663 24.0659C19.3208 23.977 19.5598 23.8491 19.7748 23.6867C20.127 23.4209 20.3847 23.0345 20.9 22.2615C21.4153 21.4885 21.673 21.1022 22.0252 20.8363C22.2402 20.674 22.4792 20.546 22.7336 20.4571C23.1502 20.3115 23.6147 20.3115 24.5436 20.3115H30" fill="#3AEBA5"/>
<path d="M4 20.3115H9.45639C10.3853 20.3115 10.8498 20.3115 11.2664 20.4571C11.5208 20.546 11.7598 20.674 11.9749 20.8363C12.3271 21.1022 12.5847 21.4885 13.1 22.2615C13.6153 23.0345 13.8729 23.4209 14.2251 23.6867C14.4402 23.8491 14.6792 23.977 14.9336 24.0659C15.3502 24.2115 15.8147 24.2115 16.7436 24.2115H17.2564C18.1853 24.2115 18.6498 24.2115 19.0664 24.0659C19.3208 23.977 19.5598 23.8491 19.7748 23.6867C20.127 23.4209 20.3847 23.0345 20.9 22.2615C21.4153 21.4885 21.673 21.1022 22.0251 20.8363C22.2402 20.674 22.4792 20.546 22.7336 20.4571C23.1502 20.3115 23.6147 20.3115 24.5436 20.3115H30" stroke="#181818" stroke-width="1.60575" stroke-linecap="round" stroke-linejoin="round"/>
</svg>
