<svg width="22" height="16" viewBox="0 0 22 16" fill="none" xmlns="http://www.w3.org/2000/svg">
<path d="M1.28491 7.91176C1.28491 4.24797 1.28491 2.41609 2.4231 1.2779C3.5613 0.139709 5.39318 0.139709 9.05696 0.139709H12.943C16.6067 0.139709 18.4387 0.139709 19.5768 1.2779C20.715 2.41609 20.715 4.24797 20.715 7.91176C20.715 11.5755 20.715 13.4075 19.5768 14.5456C18.4387 15.6838 16.6067 15.6838 12.943 15.6838H9.05696C5.39318 15.6838 3.5613 15.6838 2.4231 14.5456C1.28491 13.4075 1.28491 11.5755 1.28491 7.91176Z" fill="#4B4B4B"/>
<path d="M1.28491 5.96869H5.36254C6.05674 5.96869 6.40385 5.96869 6.71516 6.0775C6.90527 6.14395 7.08389 6.23954 7.24462 6.36089C7.50783 6.55956 7.70038 6.84829 8.08545 7.42595C8.47053 8.0036 8.66307 8.29234 8.92628 8.49101C9.08698 8.61235 9.26564 8.70795 9.45576 8.7744C9.76703 8.88321 10.1142 8.88321 10.8084 8.88321H11.1916C11.8858 8.88321 12.2329 8.88321 12.5442 8.7744C12.7343 8.70795 12.913 8.61235 13.0736 8.49101C13.3368 8.29234 13.5294 8.0036 13.9145 7.42595C14.2996 6.84829 14.4921 6.55956 14.7553 6.36089C14.916 6.23954 15.0947 6.14395 15.2848 6.0775C15.5961 5.96869 15.9432 5.96869 16.6374 5.96869H20.715" fill="#4B4B4B"/>
<path d="M1.28491 5.96869H5.36254C6.05674 5.96869 6.40385 5.96869 6.71516 6.0775C6.90527 6.14395 7.08389 6.23954 7.24462 6.36089C7.50783 6.55956 7.70038 6.84829 8.08545 7.42595C8.47053 8.0036 8.66307 8.29234 8.92628 8.49101C9.08698 8.61235 9.26564 8.70795 9.45576 8.7744C9.76703 8.88321 10.1142 8.88321 10.8084 8.88321H11.1916C11.8858 8.88321 12.2329 8.88321 12.5442 8.7744C12.7343 8.70795 12.913 8.61235 13.0736 8.49101C13.3368 8.29234 13.5294 8.0036 13.9145 7.42595C14.2996 6.84829 14.4921 6.55956 14.7553 6.36089C14.916 6.23954 15.0947 6.14395 15.2848 6.0775C15.5961 5.96869 15.9432 5.96869 16.6374 5.96869H20.715" stroke="#181818" stroke-width="1.2" stroke-linecap="round" stroke-linejoin="round"/>
</svg>
