<svg width="28" height="28" viewBox="0 0 28 28" fill="none" xmlns="http://www.w3.org/2000/svg">
<path d="M7.15809 22.1222V19.3854V22.1222ZM14.0001 22.1222V18.017V22.1222ZM20.8422 22.1222V15.2802V22.1222ZM1.00024 13.9118C1.00024 7.78355 1.00024 4.71945 2.90403 2.81565C4.80783 0.911865 7.87193 0.911865 14.0001 0.911865C20.1283 0.911865 23.1924 0.911865 25.0963 2.81565C27 4.71945 27 7.78355 27 13.9118C27 20.0399 27 23.1041 25.0963 25.0079C23.1924 26.9117 20.1283 26.9116 14.0001 26.9116C7.87193 26.9116 4.80783 26.9117 2.90403 25.0079C1.00024 23.1041 1.00024 20.0399 1.00024 13.9118Z" fill="#3AEBA5"/>
<path d="M7.15809 22.1222V19.3854M14.0001 22.1222V18.017M20.8422 22.1222V15.2802M1.00024 13.9118C1.00024 7.78355 1.00024 4.71945 2.90403 2.81565C4.80783 0.911865 7.87193 0.911865 14.0001 0.911865C20.1283 0.911865 23.1924 0.911865 25.0963 2.81565C27 4.71945 27 7.78355 27 13.9118C27 20.0399 27 23.1041 25.0963 25.0079C23.1924 26.9117 20.1283 26.9117 14.0001 26.9117C7.87193 26.9117 4.80783 26.9117 2.90403 25.0079C1.00024 23.1041 1.00024 20.0399 1.00024 13.9118Z" stroke="#323232" stroke-width="1.60574" stroke-linecap="round" stroke-linejoin="round"/>
<path d="M5.7793 13.2088C8.72836 13.3071 15.4155 12.8619 19.2191 6.82521M16.7267 6.09589L19.2932 5.68282C19.606 5.64299 20.0652 5.88995 20.1781 6.18433L20.8567 8.42639" stroke="#323232" stroke-width="1.60574" stroke-linecap="round" stroke-linejoin="round"/>
</svg>
