<svg width="22" height="22" viewBox="0 0 22 22" fill="none" xmlns="http://www.w3.org/2000/svg">
<path d="M5.88678 17.0476V15.0023V17.0476ZM11 17.0476V13.9797V17.0476ZM16.1132 17.0476V11.9344V17.0476ZM1.28491 10.9118C1.28491 6.33206 1.28491 4.0422 2.70765 2.61945C4.13039 1.19672 6.42025 1.19672 11 1.19672C15.5796 1.19672 17.8695 1.19672 19.2923 2.61945C20.715 4.0422 20.715 6.33206 20.715 10.9118C20.715 15.4915 20.715 17.7813 19.2923 19.2041C17.8695 20.6268 15.5796 20.6268 11 20.6268C6.42025 20.6268 4.13039 20.6268 2.70765 19.2041C1.28491 17.7813 1.28491 15.4915 1.28491 10.9118Z" fill="#4B4B4B"/>
<path d="M5.88678 17.0476V15.0023M11 17.0476V13.9797M16.1132 17.0476V11.9344M1.28491 10.9118C1.28491 6.33205 1.28491 4.0422 2.70765 2.61945C4.13039 1.19672 6.42025 1.19672 11 1.19672C15.5796 1.19672 17.8695 1.19672 19.2923 2.61945C20.715 4.0422 20.715 6.33205 20.715 10.9118C20.715 15.4915 20.715 17.7813 19.2923 19.2041C17.8695 20.6268 15.5796 20.6268 11 20.6268C6.42025 20.6268 4.13039 20.6268 2.70765 19.2041C1.28491 17.7813 1.28491 15.4915 1.28491 10.9118Z" stroke="#181818" stroke-width="1.2" stroke-linecap="round" stroke-linejoin="round"/>
<path d="M4.8562 10.3864C7.06009 10.4598 12.0575 10.1271 14.9 5.6158M13.0374 5.07077L14.9554 4.76207C15.1891 4.73231 15.5323 4.91686 15.6167 5.13686L16.1238 6.81239" stroke="#181818" stroke-width="1.2" stroke-linecap="round" stroke-linejoin="round"/>
</svg>
