<svg width="18" height="20" viewBox="0 0 18 20" fill="none" xmlns="http://www.w3.org/2000/svg">
<path d="M0.387085 7.05439V17.3409C0.387085 17.8734 0.387085 18.1397 0.474086 18.3498C0.590084 18.6298 0.812593 18.8524 1.09265 18.9684C1.30269 19.0553 1.56896 19.0553 2.10151 19.0553C2.63405 19.0553 2.90032 19.0553 3.11036 18.9684C3.39042 18.8524 3.61293 18.6298 3.72893 18.3498C3.81593 18.1397 3.81593 17.8734 3.81593 17.3409V7.05439C3.81593 6.52184 3.81593 6.25557 3.72893 6.04553C3.61293 5.76547 3.39042 5.54297 3.11036 5.42697C2.90032 5.33997 2.63405 5.33997 2.10151 5.33997C1.56896 5.33997 1.30269 5.33997 1.09265 5.42697C0.812593 5.54297 0.590084 5.76547 0.474086 6.04553C0.387085 6.25557 0.387085 6.52184 0.387085 7.05439Z" fill="#4B4B4B"/>
<path d="M7.28564 2.48261V17.3404C7.28564 17.8729 7.28564 18.1392 7.37262 18.3492C7.48863 18.6293 7.71116 18.8518 7.99119 18.9678C8.20126 19.0548 8.46757 19.0548 9.00007 19.0548C9.53257 19.0548 9.79887 19.0548 10.0089 18.9678C10.289 18.8518 10.5115 18.6293 10.6275 18.3492C10.7145 18.1392 10.7145 17.8729 10.7145 17.3404V2.48261C10.7145 1.95007 10.7145 1.68379 10.6275 1.47375C10.5115 1.1937 10.289 0.971187 10.0089 0.85519C9.79887 0.768188 9.53257 0.768188 9.00007 0.768188C8.46757 0.768188 8.20126 0.768188 7.99119 0.85519C7.71116 0.971187 7.48863 1.1937 7.37262 1.47375C7.28564 1.68379 7.28564 1.95007 7.28564 2.48261Z" fill="#4B4B4B"/>
<path d="M14.1841 10.4832V17.3409C14.1841 17.8734 14.1841 18.1397 14.2711 18.3498C14.3871 18.6298 14.6096 18.8523 14.8896 18.9684C15.0997 19.0553 15.366 19.0553 15.8985 19.0553C16.431 19.0553 16.6973 19.0553 16.9074 18.9684C17.1874 18.8523 17.4099 18.6298 17.5259 18.3498C17.6129 18.1397 17.6129 17.8734 17.6129 17.3409V10.4832C17.6129 9.95072 17.6129 9.68441 17.5259 9.47434C17.4099 9.19432 17.1874 8.97179 16.9074 8.85578C16.6973 8.7688 16.431 8.7688 15.8985 8.7688C15.366 8.7688 15.0997 8.7688 14.8896 8.85578C14.6096 8.97179 14.3871 9.19432 14.2711 9.47434C14.1841 9.68441 14.1841 9.95072 14.1841 10.4832Z" fill="#4B4B4B"/>
</svg>
