<svg width="34" height="46" viewBox="0 0 34 46" fill="none" xmlns="http://www.w3.org/2000/svg">
<path d="M3.99976 18.5989V34.125C3.99976 34.9287 3.99976 35.3307 4.13107 35.6478C4.30615 36.0704 4.642 36.4063 5.06471 36.5814C5.38173 36.7127 5.78363 36.7127 6.58744 36.7127C7.39124 36.7127 7.79314 36.7127 8.11017 36.5814C8.53287 36.4063 8.86872 36.0704 9.0438 35.6478C9.17512 35.3307 9.17512 34.9287 9.17512 34.125V18.5989C9.17512 17.7951 9.17512 17.3932 9.0438 17.0762C8.86872 16.6535 8.53287 16.3176 8.11017 16.1425C7.79314 16.0112 7.39124 16.0112 6.58744 16.0112C5.78363 16.0112 5.38173 16.0112 5.06471 16.1425C4.642 16.3176 4.30615 16.6535 4.13107 17.0762C3.99976 17.3932 3.99976 17.7951 3.99976 18.5989Z" fill="#3AEBA5"/>
<path d="M14.412 11.6985V34.1242C14.412 34.928 14.412 35.3299 14.5433 35.647C14.7184 36.0696 15.0542 36.4055 15.4769 36.5806C15.794 36.7119 16.1959 36.7119 16.9997 36.7119C17.8034 36.7119 18.2054 36.7119 18.5224 36.5806C18.9451 36.4055 19.281 36.0696 19.4561 35.647C19.5873 35.3299 19.5873 34.928 19.5873 34.1242V11.6985C19.5873 10.8947 19.5873 10.4928 19.4561 10.1758C19.281 9.75308 18.9451 9.41724 18.5224 9.24216C18.2054 9.11084 17.8034 9.11084 16.9997 9.11084C16.1959 9.11084 15.794 9.11084 15.4769 9.24216C15.0542 9.41724 14.7184 9.75308 14.5433 10.1758C14.412 10.4928 14.412 10.8947 14.412 11.6985Z" fill="#3AEBA5"/>
<path d="M24.8242 23.7742V34.1249C24.8242 34.9287 24.8242 35.3306 24.9555 35.6477C25.1306 36.0703 25.4665 36.4062 25.8891 36.5813C26.2062 36.7126 26.6082 36.7126 27.4119 36.7126C28.2156 36.7126 28.6176 36.7126 28.9347 36.5813C29.3573 36.4062 29.6932 36.0703 29.8683 35.6477C29.9996 35.3306 29.9996 34.9287 29.9996 34.1249V23.7742C29.9996 22.9705 29.9996 22.5685 29.8683 22.2514C29.6932 21.8288 29.3573 21.4929 28.9347 21.3178C28.6176 21.1865 28.2156 21.1865 27.4119 21.1865C26.6082 21.1865 26.2062 21.1865 25.8891 21.3178C25.4665 21.4929 25.1306 21.8288 24.9555 22.2514C24.8242 22.5685 24.8242 22.9705 24.8242 23.7742Z" fill="#3AEBA5"/>
</svg>
